<svg xmlns="http://www.w3.org/2000/svg" width="110.994" height="73.996" viewBox="0 0 110.994 73.996">
  <path id="Icon_awesome-eye" data-name="Icon awesome-eye" d="M110.323,38.685C99.873,18.3,79.185,4.5,55.5,4.5S11.115,18.3.671,38.687a6.234,6.234,0,0,0,0,5.625C11.121,64.7,31.809,78.5,55.5,78.5s44.382-13.8,54.826-34.187A6.234,6.234,0,0,0,110.323,38.685ZM55.5,69.247A27.749,27.749,0,1,1,83.245,41.5,27.749,27.749,0,0,1,55.5,69.247ZM55.5,23a18.366,18.366,0,0,0-4.877.73A9.221,9.221,0,0,1,37.728,36.621,18.457,18.457,0,1,0,55.5,23Z" transform="translate(0 -4.5)" fill="#fff"/>
</svg>
