<svg xmlns="http://www.w3.org/2000/svg" width="95.578" height="95.579" viewBox="0 0 95.578 95.579">
  <path id="Icon_awesome-bullseye" data-name="Icon awesome-bullseye" d="M47.789.563A47.789,47.789,0,1,0,95.578,48.352,47.788,47.788,0,0,0,47.789.563Zm0,83.246A35.457,35.457,0,1,1,83.245,48.352,35.437,35.437,0,0,1,47.789,83.808Zm0-60.122A24.665,24.665,0,1,0,72.454,48.352,24.666,24.666,0,0,0,47.789,23.686Zm0,37A12.333,12.333,0,1,1,60.122,48.352,12.347,12.347,0,0,1,47.789,60.685Z" transform="translate(0 -0.563)" fill="#fff"/>
</svg>
