<svg xmlns="http://www.w3.org/2000/svg" width="111" height="98.666" viewBox="0 0 111 98.666">
  <path id="Icon_awesome-hand-holding-heart" data-name="Icon awesome-hand-holding-heart" d="M53.05,48.274a3.357,3.357,0,0,0,4.914,0L78.948,26.268A15.973,15.973,0,0,0,77.869,3.375C71.934-1.77,63.089-.845,57.655,4.859L55.5,7.113,53.358,4.878C47.924-.845,39.079-1.77,33.144,3.375a15.99,15.99,0,0,0-1.079,22.893Zm55.882,14.953a6.379,6.379,0,0,0-8.209,0L82.918,77.468a12.268,12.268,0,0,1-7.708,2.7h-22.8a3.083,3.083,0,0,1,0-6.166H67.5a6.415,6.415,0,0,0,6.417-5.126,6.173,6.173,0,0,0-6.089-7.207H37a22.679,22.679,0,0,0-14.279,5.068L13.759,74H3.083A3.092,3.092,0,0,0,0,77.082v18.5a3.092,3.092,0,0,0,3.083,3.083H71.838a12.348,12.348,0,0,0,7.708-2.7L108.681,72.65A6.163,6.163,0,0,0,108.932,63.227Z" transform="translate(0 0.001)" fill="#fff"/>
</svg>
