<svg xmlns="http://www.w3.org/2000/svg" width="260" height="51.396" viewBox="0 0 260 51.396">
  <g id="Grupo_119" data-name="Grupo 119" transform="translate(-1503 338)">
    <g id="Grupo_118" data-name="Grupo 118" transform="translate(1396 -402.999)">
      <g id="Grupo_1" data-name="Grupo 1" transform="translate(107 64.999)">
        <path id="Trazado_35" data-name="Trazado 35" d="M1767.3,198.763h-7.286a.177.177,0,0,1-.177-.177V171.412a3.659,3.659,0,0,0-.307-1.5,3.985,3.985,0,0,0-.828-1.214,3.816,3.816,0,0,0-6.531,2.711v27.174a.177.177,0,0,1-.177.177h-7.313a.177.177,0,0,1-.177-.177V171.412a3.82,3.82,0,1,0-7.639,0v27.174a.177.177,0,0,1-.177.177h-7.311a.177.177,0,0,1-.177-.177V171.412a11.285,11.285,0,0,1,.894-4.475,11.436,11.436,0,0,1,6.117-6.116,11.4,11.4,0,0,1,12.025,1.967.171.171,0,0,0,.229,0,11.234,11.234,0,0,1,7.525-2.861,11.287,11.287,0,0,1,4.474.895,11.427,11.427,0,0,1,6.116,6.116,11.267,11.267,0,0,1,.9,4.475v27.174a.177.177,0,0,1-.177.177" transform="translate(-1729.2 -148.228)" fill="#e3171d"/>
        <path id="Trazado_36" data-name="Trazado 36" d="M1881.513,199.426h-7.62a.177.177,0,0,1-.177-.177V191.9a.177.177,0,0,0-.177-.177h-15.6a.177.177,0,0,0-.177.177v7.345a.177.177,0,0,1-.177.177h-7.594a.177.177,0,0,1-.177-.177V176.354a14.538,14.538,0,0,1,1.251-6,15.625,15.625,0,0,1,3.4-4.9,16.309,16.309,0,0,1,22.551,0,15.522,15.522,0,0,1,3.419,4.9,14.564,14.564,0,0,1,1.25,6v22.895a.177.177,0,0,1-.177.177m-7.974-15.373a.176.176,0,0,0,.177-.177v-7.522a7.274,7.274,0,0,0-.626-2.991,7.739,7.739,0,0,0-1.709-2.454,8.165,8.165,0,0,0-11.281,0,7.739,7.739,0,0,0-1.71,2.454,7.3,7.3,0,0,0-.625,2.991v7.522a.176.176,0,0,0,.177.177Z" transform="translate(-1806.797 -148.891)" fill="#e3171d"/>
        <path id="Trazado_37" data-name="Trazado 37" d="M1965.422,200.834h-7.163a.177.177,0,0,1-.177-.177v-11.49a.174.174,0,0,0-.131-.168,14.664,14.664,0,0,1-4.455-1.989,15.051,15.051,0,0,1-5.914-7.609,14.833,14.833,0,0,1-.828-4.954V163.322a.177.177,0,0,1,.177-.177h7.19a.177.177,0,0,1,.177.177v11.124a7.367,7.367,0,0,0,.591,2.931,7.538,7.538,0,0,0,4.021,4.021,7.553,7.553,0,0,0,5.861,0,7.522,7.522,0,0,0,4.021-4.021,7.341,7.341,0,0,0,.593-2.931V163.322a.177.177,0,0,1,.177-.177h7.163a.177.177,0,0,1,.177.177v11.124a14.833,14.833,0,0,1-.828,4.954,15.126,15.126,0,0,1-5.9,7.609A14.519,14.519,0,0,1,1965.73,189a.174.174,0,0,0-.131.168v11.49a.177.177,0,0,1-.177.177" transform="translate(-1869.162 -150.299)" fill="#e3171d"/>
        <path id="Trazado_38" data-name="Trazado 38" d="M2200.448,199.426h-7.62a.177.177,0,0,1-.177-.177V191.9a.177.177,0,0,0-.177-.177h-15.6a.177.177,0,0,0-.177.177v7.345a.177.177,0,0,1-.177.177h-7.594a.177.177,0,0,1-.177-.177V176.354a14.541,14.541,0,0,1,1.251-6,15.629,15.629,0,0,1,3.4-4.9,16.308,16.308,0,0,1,22.551,0,15.522,15.522,0,0,1,3.419,4.9,14.56,14.56,0,0,1,1.25,6v22.895a.177.177,0,0,1-.177.177m-7.974-15.373a.177.177,0,0,0,.177-.177v-7.522a7.274,7.274,0,0,0-.626-2.991,7.739,7.739,0,0,0-1.708-2.454,8.166,8.166,0,0,0-11.282,0,7.747,7.747,0,0,0-1.71,2.454,7.3,7.3,0,0,0-.625,2.991v7.522a.177.177,0,0,0,.177.177Z" transform="translate(-2011.982 -148.891)" fill="#e3171d"/>
        <path id="Trazado_39" data-name="Trazado 39" d="M2280.6,199.425h-7.594a.177.177,0,0,1-.177-.177V168.831a.177.177,0,0,0-.177-.177h-11.624a.177.177,0,0,1-.177-.177v-7.345a.177.177,0,0,1,.177-.177h31.521a.177.177,0,0,1,.177.177v7.345a.177.177,0,0,1-.177.177h-11.6a.177.177,0,0,0-.177.177v30.417a.177.177,0,0,1-.177.177" transform="translate(-2071.237 -148.89)" fill="#e3171d"/>
        <path id="Trazado_40" data-name="Trazado 40" d="M2387.244,180.608a19.18,19.18,0,0,1-.7,5.212,20.011,20.011,0,0,1-1.976,4.694,19.484,19.484,0,0,1-3.076,3.991,20,20,0,0,1-3.979,3.09,19.643,19.643,0,0,1-15.13,1.989,19.812,19.812,0,0,1-13.766-13.765,19.743,19.743,0,0,1,0-10.437,19.468,19.468,0,0,1,1.989-4.694,20.089,20.089,0,0,1,3.09-3.979,19.506,19.506,0,0,1,3.992-3.076,20.065,20.065,0,0,1,4.695-1.976,19.7,19.7,0,0,1,10.435,0,19.633,19.633,0,0,1,13.725,13.724,19.325,19.325,0,0,1,.7,5.225m-7.558,0a11.761,11.761,0,0,0-.955-4.707,12.052,12.052,0,0,0-6.431-6.432,12.119,12.119,0,0,0-9.428,0,12.413,12.413,0,0,0-3.845,2.586,12.1,12.1,0,0,0-2.6,3.846,11.76,11.76,0,0,0-.955,4.707,11.577,11.577,0,0,0,.955,4.681,12.259,12.259,0,0,0,6.445,6.431,12.11,12.11,0,0,0,9.428,0,12.1,12.1,0,0,0,3.846-2.6,12.439,12.439,0,0,0,2.585-3.832,11.577,11.577,0,0,0,.955-4.681" transform="translate(-2127.243 -148.89)" fill="#e3171d"/>
        <path id="Trazado_41" data-name="Trazado 41" d="M2084.379,147.06a3.244,3.244,0,0,0-3.24,3.24v18.541c0,7.282-4.273,15.118-13.656,15.118-9.911,0-13.427-8.144-13.427-15.118V160.02a3.24,3.24,0,0,0-6.48,0v8.821c0,12.919,8,21.6,19.907,21.6,13.219,0,20.136-10.865,20.136-21.6V150.3a3.244,3.244,0,0,0-3.24-3.24" transform="translate(-1934.024 -139.951)" fill="#e3171d"/>
        <path id="Trazado_42" data-name="Trazado 42" d="M2080.69,127.128a3.565,3.565,0,0,0-3.564,3.564v12.121a3.564,3.564,0,0,0,7.129,0V130.692a3.565,3.565,0,0,0-3.564-3.564" transform="translate(-1953.035 -127.128)" fill="#243883"/>
        <path id="Trazado_43" data-name="Trazado 43" d="M2112.593,132.9a3.564,3.564,0,0,0-3.564,3.564v12.122a3.564,3.564,0,1,0,7.128,0V136.463a3.564,3.564,0,0,0-3.564-3.564" transform="translate(-1973.56 -130.841)" fill="#243883"/>
      </g>
    </g>
  </g>
</svg>
